<svg version="1.1" id="Lager_1" xmlns="http://www.w3.org/2000/svg" x="0" y="0" viewBox="0 0 800 574" xml:space="preserve"><style>.st0{stroke:#404040;stroke-miterlimit:10;fill:none;stroke-width:4}.st1{fill:#4ed1a1}.st1,.st10{stroke-width:4;stroke:#404040;stroke-miterlimit:10}.st2{fill:#b18be8}.st2,.st9{stroke-width:4;stroke:#404040;stroke-miterlimit:10}.st10,.st9{fill:#b3e3ff}.st10{stroke-linecap:round;stroke-linejoin:round}.st11{fill:#404040}.st12,.st20{stroke-linecap:round}.st12{fill:none;stroke:#404040;stroke-width:4;stroke-linejoin:round;stroke-miterlimit:10}.st20{fill:#fc8363}.st20,.st21,.st22{stroke:#404040;stroke-width:4;stroke-linejoin:round;stroke-miterlimit:10}.st21{fill:#4ed1a1;stroke-linecap:round}.st22{fill:#4cd3d6}</style><path class="st0" d="M424.4 459.9c0-17 13.8-30.8 30.8-30.8m-201.1 30.8c0-17-13.8-30.8-30.8-30.8m-58.8 123h213.9"/><circle class="st1" cx="315.8" cy="552.1" r="15.8"/><circle class="st1" cx="362.7" cy="552.1" r="15.8"/><circle class="st1" cx="242.5" cy="552.1" r="15.8"/><path class="st0" d="M776.2 429.1H179.9"/><circle class="st2" cx="485.2" cy="429.1" r="15.8"/><circle class="st2" cx="315.8" cy="429.1" r="15.8"/><circle class="st2" cx="776.2" cy="429.1" r="15.8"/><path class="st0" d="M254.1 459.9c0 17 13.8 30.8 30.8 30.8h107.9M84.9 275c0 17 13.8 30.8 30.8 30.8H133"/><circle class="st1" cx="315.8" cy="490.6" r="15.8"/><circle class="st1" cx="362.7" cy="490.6" r="15.8"/><path class="st0" d="M392.8 490.6h.9c17 0 30.8-13.8 30.8-30.8"/><path d="M57.2 306.1H21.5" fill="none" stroke="#ccc" stroke-width="4" stroke-linecap="round" stroke-linejoin="round" stroke-dasharray="0,14.3051"/><path d="M762.1 306.1H244.9" fill="none" stroke="#ccc" stroke-width="4" stroke-linecap="round" stroke-linejoin="round" stroke-dasharray="0,14.1689"/><path d="M531.5 367.6H21.3" fill="none" stroke="#ccc" stroke-width="4" stroke-linecap="round" stroke-linejoin="round" stroke-dasharray="0,13.9788"/><path d="M761.5 367.6h-51.8" fill="none" stroke="#ccc" stroke-width="4" stroke-linecap="round" stroke-linejoin="round" stroke-dasharray="0,14.7877"/><path d="M761.3 244.6H679" fill="none" stroke="#ccc" stroke-width="4" stroke-linecap="round" stroke-linejoin="round" stroke-dasharray="0,14.9632"/><path class="st0" d="M84.9 275.4c0-17-13.8-30.8-30.8-30.8M211.7 275c0 17-13.8 30.8-30.8 30.8h-48m78.8-30.4c0-17 13.8-30.8 30.8-30.8m30.7 184.5c-17 0-30.8-13.8-30.8-30.8v-61.8m0 0c0-17-13.8-30.8-30.8-30.8"/><circle class="st1" cx="148.7" cy="552.1" r="15.8"/><path class="st0" d="M645 244.6H39.2"/><circle transform="matrix(.9999 -.01515 .01515 .9999 -3.702 .384)" class="st9" cx="23.5" cy="244.6" r="15.8"/><circle class="st9" cx="315.8" cy="244.6" r="15.8"/><circle class="st9" cx="645" cy="244.6" r="15.8"/><path class="st10" d="M49 139.1h42.5v37.5H49v-37.5z"/><path class="st11" d="M62.6 162.4h-1.2l-2.5-6.3h1.4l1.8 4.8 1.8-4.8h1.3l-2.6 6.3zm4.7-7.3c.5-.8 1.4-1.4 2.6-1.4s2 .5 2.6 1.4c.6.8.8 1.9.8 3.1s-.2 2.2-.8 3.1c-.5.8-1.4 1.4-2.6 1.4s-2-.5-2.6-1.4c-.6-.8-.8-1.9-.8-3.1s.2-2.3.8-3.1zm1.2 5.8c.3.3.7.5 1.3.5s1-.2 1.3-.5c.5-.5.7-1.4.7-2.7s-.2-2.2-.7-2.7c-.3-.3-.7-.5-1.3-.5s-1 .2-1.3.5c-.5.5-.7 1.4-.7 2.7s.2 2.1.7 2.7zm7.3-.3c.5 0 .9.4.9.9s-.4.9-.9.9-.9-.4-.9-.9.4-.9.9-.9zm3.9 1.8v-5.9h-2v-.9c1.2 0 2-.7 2.2-1.6H81v8.4h-1.3z"/><path class="st12" d="M70.3 210.7v-17.6m8.2 11.1l-8.2 8.2-8.1-8.2"/><path class="st10" d="M294.6 139.1h42.5v37.5h-42.5v-37.5z"/><path class="st11" d="M306.5 162.4h-1.2l-2.5-6.3h1.4l1.8 4.8 1.8-4.8h1.3l-2.6 6.3zm4.7-7.3c.5-.8 1.4-1.4 2.6-1.4s2 .5 2.6 1.4c.6.8.8 1.9.8 3.1s-.2 2.2-.8 3.1c-.5.8-1.4 1.4-2.6 1.4s-2-.5-2.6-1.4c-.6-.8-.8-1.9-.8-3.1s.2-2.3.8-3.1zm1.2 5.8c.3.3.7.5 1.3.5s1-.2 1.3-.5c.5-.5.7-1.4.7-2.7s-.2-2.2-.7-2.7c-.3-.3-.7-.5-1.3-.5s-1 .2-1.3.5c-.5.5-.7 1.4-.7 2.7s.2 2.1.7 2.7zm7.3-.3c.5 0 .9.4.9.9s-.4.9-.9.9-.9-.4-.9-.9.4-.9.9-.9zm3-3.8v-.3c0-1.4 1.1-2.7 2.9-2.7s2.8 1.2 2.8 2.6c0 1.1-.6 2-1.6 2.6l-1.7 1.1c-.5.3-.9.7-1 1.2h4.3v1.2h-5.9c0-1.4.6-2.4 2-3.4l1.4-.9c.8-.5 1.2-1.1 1.2-1.8 0-.8-.5-1.5-1.6-1.5s-1.6.8-1.6 1.7v.4l-1.2-.2z"/><path class="st12" d="M315.8 210.7v-17.6m8.2 11.1l-8.2 8.2-8.1-8.2"/><path class="st10" d="M623.8 139.1h42.5v37.5h-42.5v-37.5z"/><path class="st11" d="M636.8 162.4h-1.2l-2.5-6.3h1.4l1.8 4.8 1.8-4.8h1.3l-2.6 6.3zm5.6 0v-5.9h-2v-.9c1.2 0 2-.7 2.2-1.6h1.1v8.4h-1.3zm4.6-1.8c.5 0 .9.4.9.9s-.4.9-.9.9-.9-.4-.9-.9.4-.9.9-.9zm3.6-5.5c.5-.8 1.4-1.4 2.6-1.4s2 .5 2.6 1.4c.6.8.8 1.9.8 3.1s-.2 2.2-.8 3.1c-.5.8-1.4 1.4-2.6 1.4s-2-.5-2.6-1.4c-.6-.8-.8-1.9-.8-3.1s.3-2.3.8-3.1zm1.3 5.8c.3.3.7.5 1.3.5s1-.2 1.3-.5c.5-.5.7-1.4.7-2.7s-.2-2.2-.7-2.7c-.3-.3-.7-.5-1.3-.5s-1 .2-1.3.5c-.5.5-.7 1.4-.7 2.7s.2 2.1.7 2.7z"/><path class="st12" d="M645 210.7v-17.6m8.2 11.1l-8.2 8.2-8.1-8.2"/><path d="M64.5 429.1H20.6" fill="none" stroke="#ccc" stroke-width="4" stroke-linecap="round" stroke-linejoin="round" stroke-dasharray="0,12.543"/><path d="M246.9 490.6H21.2" fill="none" stroke="#ccc" stroke-width="4" stroke-linecap="round" stroke-linejoin="round" stroke-dasharray="0,13.6844"/><path d="M762.5 490.6H425.1" fill="none" stroke="#ccc" stroke-width="4" stroke-linecap="round" stroke-linejoin="round" stroke-dasharray="0,13.7717"/><path d="M109.9 552.1H21.1" fill="none" stroke="#ccc" stroke-width="4" stroke-linecap="round" stroke-linejoin="round" stroke-dasharray="0,13.6492"/><path d="M762.3 552.1H393.8" fill="none" stroke="#ccc" stroke-width="4" stroke-linecap="round" stroke-linejoin="round" stroke-dasharray="0,13.907"/><path d="M283.5 5.2h96.2v50h-96.2v-50z" fill="#4cd3d6" stroke="#404040" stroke-width="4" stroke-linecap="round" stroke-linejoin="round" stroke-miterlimit="10"/><path class="st11" d="M308.8 31.8h-1.6v4.3h-1.5V25.6h4c2 0 3.3 1.4 3.3 3.2 0 1.5-1 2.7-2.6 3l2.5 4.5h-1.7l-2.4-4.5zm.7-1.3c1.2 0 2-.7 2-1.8s-.8-1.8-2-1.8h-2.2v3.6h2.2zm12.1 3.6c-.4 1.3-1.6 2.3-3.2 2.3-1.9 0-3.6-1.4-3.6-3.9 0-2.3 1.6-3.8 3.5-3.8 2.2 0 3.5 1.5 3.5 3.8v.5h-5.4c0 1.3 1 2.2 2.2 2.2s1.8-.6 2-1.5l1 .4zm-1.4-2.3c0-1-.7-1.8-2-1.8-1.2 0-1.9.9-2 1.8h4zm4 4.4V25.3h1.4v10.9h-1.4zm10.9-2.1c-.4 1.3-1.6 2.3-3.2 2.3-1.9 0-3.6-1.4-3.6-3.9 0-2.3 1.6-3.8 3.5-3.8 2.2 0 3.5 1.5 3.5 3.8v.5h-5.4c0 1.3 1 2.2 2.2 2.2s1.8-.6 2-1.5l1 .4zm-1.4-2.3c0-1-.7-1.8-2-1.8-1.2 0-1.9.9-2 1.8h4zm5.7.3l2-.3c.4-.1.6-.3.6-.5 0-.7-.5-1.3-1.6-1.3-1 0-1.5.6-1.6 1.5l-1.4-.3c.2-1.4 1.4-2.3 3-2.3 2.2 0 3 1.2 3 2.6V35c0 .6.1 1 .1 1.2H342c0-.2-.1-.5-.1-1-.3.5-1 1.2-2.3 1.2-1.5 0-2.4-1-2.4-2.2s1-2 2.2-2.1zm2.5 1v-.3l-2.2.3c-.6.1-1 .4-1 1.1 0 .5.5 1 1.2 1 1.1 0 2-.5 2-2.1zm5 .8c.1.8.7 1.3 1.7 1.3.8 0 1.2-.5 1.2-1 0-.4-.3-.8-.9-.9l-1.2-.3c-1.1-.2-1.8-1-1.8-2 0-1.2 1.2-2.3 2.6-2.3 2 0 2.6 1.3 2.7 1.9l-1.2.5c-.1-.4-.4-1.2-1.5-1.2-.7 0-1.2.5-1.2 1 0 .4.3.8.8.9l1.2.3c1.3.3 2 1.1 2 2.1s-.9 2.2-2.6 2.2c-2 0-2.8-1.3-2.9-2.1l1.1-.4zm13.1.2c-.4 1.3-1.6 2.3-3.2 2.3-1.9 0-3.6-1.4-3.6-3.9 0-2.3 1.6-3.8 3.5-3.8 2.2 0 3.5 1.5 3.5 3.8v.5h-5.4c0 1.3 1 2.2 2.2 2.2s1.8-.6 2-1.5l1 .4zm-1.4-2.3c0-1-.7-1.8-2-1.8-1.2 0-1.9.9-2 1.8h4z"/><path d="M421.3 5.2h96.2v50h-96.2v-50z" fill="#b18be8" stroke="#404040" stroke-width="4" stroke-linecap="round" stroke-linejoin="round" stroke-miterlimit="10"/><path class="st11" d="M441.7 36.2V25.6h3.7c2.7 0 5.1 1.8 5.1 5.3s-2.4 5.3-5.1 5.3h-3.7zm3.6-1.3c2 0 3.6-1.3 3.6-4s-1.6-4-3.6-4h-2.2v8h2.2zm14-.8c-.4 1.3-1.6 2.3-3.2 2.3-1.9 0-3.6-1.4-3.6-3.9 0-2.3 1.6-3.8 3.4-3.8 2.2 0 3.5 1.5 3.5 3.8v.5H454c0 1.3 1 2.2 2.2 2.2s1.8-.6 2-1.5l1.1.4zm-1.4-2.3c0-1-.7-1.8-2-1.8-1.2 0-1.9.9-2 1.8h4zm7.5 4.4H464l-3-7.2h1.6l2.1 5.6 2.1-5.6h1.5l-2.9 7.2zm10.7-2.1c-.4 1.3-1.6 2.3-3.2 2.3-1.9 0-3.6-1.4-3.6-3.9 0-2.3 1.6-3.8 3.5-3.8 2.2 0 3.5 1.5 3.5 3.8v.5h-5.4c0 1.3 1 2.2 2.2 2.2s1.8-.6 2-1.5l1 .4zm-1.4-2.3c0-1-.7-1.8-2-1.8-1.2 0-1.9.9-2 1.8h4zm4 4.4V25.3h1.4v10.9h-1.4zm11.4-3.6c0 2.2-1.5 3.8-3.7 3.8s-3.7-1.6-3.7-3.8 1.5-3.8 3.7-3.8c2.1-.1 3.7 1.6 3.7 3.8zm-1.5 0c0-1.7-1-2.6-2.2-2.6s-2.2.9-2.2 2.6 1 2.6 2.2 2.6 2.2-1 2.2-2.6zm4 6.4V29h1.4v1.1c.4-.7 1.2-1.3 2.4-1.3 2.2 0 3.3 1.7 3.3 3.8s-1.2 3.8-3.4 3.8c-1.1 0-2-.5-2.3-1.2V39h-1.4zm3.5-8.9c-1.3 0-2.1 1.1-2.1 2.5 0 1.5.9 2.6 2.1 2.6 1.3 0 2.1-1.1 2.1-2.6.1-1.5-.7-2.5-2.1-2.5z"/><path class="st20" d="M145.8 5.2H242v50h-96.2v-50z"/><path class="st11" d="M180.9 36.2v-4.7h-5.4v4.7H174V25.6h1.5v4.5h5.4v-4.5h1.5v10.6h-1.5zm11.5-3.6c0 2.2-1.5 3.8-3.7 3.8s-3.7-1.6-3.7-3.8 1.5-3.8 3.7-3.8c2.2-.1 3.7 1.6 3.7 3.8zm-1.4 0c0-1.7-1-2.6-2.2-2.6s-2.2.9-2.2 2.6 1 2.6 2.2 2.6 2.2-1 2.2-2.6zm5.8-3.6h1.6v1.3h-1.6V34c0 .7.3 1 1 1 .2 0 .4 0 .6-.1v1.2c-.1 0-.5.1-1 .1-1.2 0-2-.8-2-2.1v-4H194V29h.4c.8 0 1.1-.5 1.1-1.1v-1.2h1.3V29zm7.8-3.6v1.3c-.1 0-.3-.1-.6-.1-.5 0-1.1.2-1.1 1.2V29h4.8v7.2h-1.4v-5.9h-3.4v5.9h-1.5v-5.9h-1.3V29h1.3v-1.2c0-1.6 1.1-2.5 2.4-2.5.4 0 .7.1.8.1zm2.3-.2c.6 0 1 .4 1 1s-.5 1-1 1c-.6 0-1-.5-1-1 0-.6.5-1 1-1zm5.5 7.3l-2.6-3.5h1.7l1.8 2.5L215 29h1.7l-2.6 3.5c.4.6 2.2 3.1 2.7 3.7h-1.7l-1.9-2.7-1.8 2.7h-1.7l2.7-3.7z"/><path class="st21" d="M559.1 5.2h96.2v50h-96.2v-50z"/><path class="st11" d="M581.6 35.7V25.1h6.5v1.4h-5v3.4h4.5v1.4h-4.5v4.5l-1.5-.1zm14.7-2.1c-.4 1.3-1.6 2.3-3.2 2.3-1.9 0-3.6-1.4-3.6-3.9 0-2.3 1.6-3.8 3.5-3.8 2.2 0 3.5 1.5 3.5 3.8v.5h-5.4c0 1.3 1 2.2 2.2 2.2s1.8-.6 2-1.5l1 .4zm-1.5-2.3c0-1-.7-1.8-2-1.8-1.2 0-1.9.9-2 1.8h4zm5.8.3l2-.3c.4-.1.6-.3.6-.5 0-.7-.5-1.3-1.6-1.3-1 0-1.5.6-1.6 1.5l-1.3-.3c.2-1.4 1.4-2.3 3-2.3 2.2 0 3 1.2 3 2.6v3.6c0 .6.1 1 .1 1.2h-1.4c0-.2-.1-.5-.1-1-.3.5-1 1.2-2.3 1.2-1.5 0-2.4-1-2.4-2.2-.2-1.3.7-2.1 2-2.2zm2.5 1v-.3l-2.2.3c-.6.1-1 .4-1 1.1 0 .5.5 1 1.2 1 1.1 0 2-.5 2-2.1zm6.2-4.1h1.6v1.3h-1.6v3.8c0 .7.3 1 1 1 .2 0 .4 0 .6-.1v1.2c-.1 0-.5.1-1 .1-1.2 0-2-.8-2-2.1v-4h-1.4v-1.3h.4c.8 0 1.1-.5 1.1-1.1v-1.2h1.3v2.4zm6.8 7.4c-1.7 0-2.7-1.3-2.7-2.9v-4.5h1.4v4.3c0 1 .5 1.9 1.6 1.9s1.7-.8 1.7-1.8v-4.3h1.4v5.9c0 .6 0 1.1.1 1.3h-1.3c0-.2-.1-.6-.1-.9-.3.7-1.2 1-2.1 1zm10.7-6h-.6c-1.2 0-2 .6-2 2.2v3.6h-1.4v-7.2h1.4v1.3c.5-1.1 1.4-1.4 2.2-1.4h.5v1.5h-.1zm8.4 3.7c-.4 1.3-1.6 2.3-3.2 2.3-1.9 0-3.6-1.4-3.6-3.9 0-2.3 1.6-3.8 3.5-3.8 2.2 0 3.5 1.5 3.5 3.8v.5H630c0 1.3 1 2.2 2.2 2.2s1.8-.6 2-1.5l1 .4zm-1.4-2.3c0-1-.7-1.8-2-1.8-1.2 0-1.9.9-2 1.8h4z"/><path class="st21" d="M696.8 5.2H793v50h-96.2v-50z"/><path class="st11" d="M719.4 35.7V25.1h6.5v1.4h-5v3.4h4.5v1.4h-4.5v4.5l-1.5-.1zm14.6-2.1c-.4 1.3-1.6 2.3-3.2 2.3-1.9 0-3.6-1.4-3.6-3.9 0-2.3 1.6-3.8 3.4-3.8 2.2 0 3.5 1.5 3.5 3.8v.5h-5.4c0 1.3 1 2.2 2.2 2.2s1.8-.6 2-1.5l1.1.4zm-1.4-2.3c0-1-.7-1.8-2-1.8-1.2 0-1.9.9-2 1.8h4zm5.8.3l1.9-.3c.4-.1.6-.3.6-.5 0-.7-.5-1.3-1.6-1.3-1 0-1.5.6-1.6 1.5l-1.4-.3c.2-1.4 1.4-2.3 3-2.3 2.2 0 3 1.2 3 2.6v3.6c0 .6.1 1 .1 1.2H741c0-.2-.1-.5-.1-1-.3.5-1 1.2-2.3 1.2-1.5 0-2.4-1-2.4-2.2 0-1.3.9-2.1 2.2-2.2zm2.5 1v-.3l-2.2.3c-.6.1-1 .4-1 1.1 0 .5.4 1 1.2 1 1 0 2-.5 2-2.1zm6.2-4.1h1.6v1.3h-1.6v3.8c0 .7.3 1 1 1 .2 0 .4 0 .6-.1v1.2c-.1 0-.5.1-1 .1-1.2 0-2-.8-2-2.1v-4h-1.4v-1.3h.4c.8 0 1.1-.5 1.1-1.1v-1.2h1.3v2.4zm6.8 7.4c-1.7 0-2.7-1.3-2.7-2.9v-4.5h1.4v4.3c0 1 .5 1.9 1.6 1.9s1.7-.8 1.7-1.8v-4.3h1.4v5.9c0 .6 0 1.1.1 1.3h-1.3c0-.2-.1-.6-.1-.9-.3.7-1.2 1-2.1 1zm10.6-6h-.6c-1.2 0-2 .6-2 2.2v3.6h-1.4v-7.2h1.4v1.3c.5-1.1 1.4-1.4 2.2-1.4h.5v1.5h-.1zm8.5 3.7c-.4 1.3-1.6 2.3-3.2 2.3-1.9 0-3.6-1.4-3.6-3.9 0-2.3 1.6-3.8 3.5-3.8 2.2 0 3.5 1.5 3.5 3.8v.5h-5.4c0 1.3 1 2.2 2.2 2.2s1.8-.6 2-1.5l1 .4zm-1.4-2.3c0-1-.7-1.8-2-1.8-1.2 0-1.9.9-2 1.8h4z"/><path class="st0" d="M84.9 275v123.4c0 17 13.8 30.8 30.8 30.8h95.7"/><circle class="st2" cx="195.6" cy="429.1" r="15.7"/><circle class="st2" cx="148.7" cy="429.1" r="15.8"/><circle class="st20" cx="148.7" cy="306.1" r="15.8"/><path class="st0" d="M536.5 398.4c0 17-13.8 30.8-30.8 30.8m201-30.8c0 17 13.8 30.8 30.8 30.8h23m-192.4-61.6h-.9c-17 0-30.8 13.8-30.8 30.8m170.3 0c0-17-13.8-30.8-30.8-30.8H568.1"/><circle class="st22" cx="645" cy="367.6" r="15.8"/><circle class="st22" cx="598.2" cy="367.6" r="15.8"/><path class="st0" d="M148.7 444.9v91.5m15.8-230.7h47.2M645 351.9v-91.5"/><path class="st10" d="M8 5.2h96.2v50H8v-50z"/><path d="M40.9 36.3v-10h2l2.4 7.1c.2.7.4 1.2.5 1.5.1-.4.3-.9.5-1.6l2.4-7h1.8v10h-1.3v-8.4l-2.9 8.4h-1.2l-2.9-8.5v8.5h-1.3zm17-.9c-.5.4-.9.7-1.3.8-.4.2-.9.2-1.4.2-.8 0-1.4-.2-1.8-.6s-.6-.9-.6-1.5c0-.4.1-.7.2-1 .2-.3.4-.5.6-.7.3-.2.6-.3.9-.4.2-.1.6-.1 1.1-.2 1-.1 1.7-.3 2.2-.4v-.3c0-.5-.1-.9-.3-1.1-.3-.3-.8-.4-1.4-.4s-1 .1-1.3.3c-.3.2-.5.6-.6 1.1L53 31c.1-.5.3-.9.5-1.2.3-.3.6-.6 1.1-.7.5-.2 1-.3 1.6-.3s1.1.1 1.5.2.7.3.9.6c.2.2.3.5.4.8 0 .2.1.6.1 1.1v1.6c0 1.1 0 1.9.1 2.2l.3.9h-1.3c-.2-.1-.3-.4-.3-.8zm-.1-2.7c-.4.2-1.1.3-2 .5-.5.1-.9.2-1.1.2s-.4.2-.5.4-.2.4-.2.6c0 .3.1.6.4.8.2.2.6.3 1.1.3s.9-.1 1.3-.3c.4-.2.6-.5.8-.9.1-.3.2-.7.2-1.2v-.4zm3.8-5v-1.4h1.2v1.4h-1.2zm0 8.6V29h1.2v7.3h-1.2zm3.8 0V29h1.1v1c.5-.8 1.3-1.2 2.3-1.2.4 0 .8.1 1.2.2.4.2.6.4.8.6.2.2.3.6.4.9 0 .2.1.6.1 1.2v4.5h-1.2v-4.4c0-.5 0-.9-.1-1.1s-.3-.4-.5-.6c-.2-.1-.5-.2-.9-.2-.5 0-1 .2-1.4.5s-.6 1-.6 1.9v4h-1.2z" fill="#414141"/></svg>