<svg xmlns="http://www.w3.org/2000/svg" viewBox="0 0 800 406"><style>.st4{stroke-linecap:round;stroke-linejoin:round;stroke:#404040;stroke-width:4;stroke-miterlimit:10}.st4,.st5{fill:#fff}.st5,.st6,.st7{stroke:#404040;stroke-width:4;stroke-miterlimit:10}.st6{fill:#b3e3ff}.st7{fill:#b18be8}.st11{stroke-linecap:round;stroke-linejoin:round;stroke:#404040;stroke-width:4;stroke-miterlimit:10}.st11,.st14{fill:none}.st14,.st15,.st27{stroke:#404040;stroke-width:4;stroke-miterlimit:10}.st15{fill:#4ed1a1}.st27{fill:#4cd3d6;stroke-linejoin:round}</style><g id="centralized_x5F_workflow_x5F_1"><path class="st14" d="M247.2 221.4h107.2c11.6 0 21-9.4 21-21v-38.9"/><path d="M400.4 161.5v117.7" fill="#b18be8" stroke="#404040" stroke-width="4" stroke-linecap="round" stroke-linejoin="round" stroke-miterlimit="10"/><path class="st14" d="M553.6 221.4H446.4c-11.6 0-21-9.4-21-21v-38.9"/><path class="st11" d="M247.2 221.4c-11.6 0-21 9.4-21 21v36.9m327.4-57.9c11.6 0 21 9.4 21 21v36.9"/><path id="repo1_218_" class="st6" d="M337.7 114.6c0-12.4 28.2-22.4 63-22.4s63 10 63 22.4m-126 0v27.9c0 3 1.7 5.9 4.7 8.5 9.4 8.2 32 13.9 58.3 13.9 26.4 0 48.9-5.8 58.3-13.9 3-2.6 4.7-5.5 4.7-8.5v-27.9"/><path class="st5" d="M463.7 114.6c0 12.4-28.2 22.4-63 22.4s-63-10-63-22.4c0-12.4 28.2-22.4 63-22.4s63 10 63 22.4z"/><path id="repo1_217_" class="st6" d="M337.7 86.7c0-12.4 28.2-22.4 63-22.4s63 10 63 22.4m-126 0v27.9c0 3 1.7 5.9 4.7 8.5 9.4 8.2 32 13.9 58.3 13.9 26.4 0 48.9-5.8 58.3-13.9 3-2.6 4.7-5.5 4.7-8.5V86.7"/><path class="st5" d="M463.7 86.7c0 12.4-28.2 22.4-63 22.4s-63-10-63-22.4 28.2-22.4 63-22.4 63 10 63 22.4z"/><path id="repo1_216_" class="st6" d="M337.7 58.8c0-12.4 28.2-22.4 63-22.4s63 10 63 22.4m-126 0v27.9c0 3 1.7 5.9 4.7 8.5 9.4 8.2 32 13.9 58.3 13.9 26.4 0 48.9-5.8 58.3-13.9 3-2.6 4.7-5.5 4.7-8.5V58.8"/><path class="st5" d="M463.7 58.8c0 12.4-28.2 22.4-63 22.4s-63-10-63-22.4c0-12.4 28.2-22.4 63-22.4s63 10 63 22.4z"/><path id="repo1_215_" class="st6" d="M337.7 30.9c0-12.4 28.2-22.4 63-22.4s63 10 63 22.4m-126 0v27.9c0 3 1.7 5.9 4.7 8.5 9.4 8.2 32 13.9 58.3 13.9 26.4 0 48.9-5.8 58.3-13.9 3-2.6 4.7-5.5 4.7-8.5V30.9"/><path class="st5" d="M463.7 30.9c0 12.4-28.2 22.4-63 22.4s-63-10-63-22.4c0-12.4 28.2-22.4 63-22.4s63 10 63 22.4z"/><path class="st11" d="M557.2 348.6c3.1 6.8 9.9 11.2 17.3 11.2 7.5 0 14.3-4.4 17.4-11.3"/><path class="st15" d="M574.1 392.8s27.4.8 37.7-5.2c17-9.9-.3-30.2-13.7-33.6-4.1 7.7-13.3 13-24 13h.3c-10.7 0-19.8-5.4-24-13-13.4 3.4-30.7 23.8-13.7 33.6 10.3 6 37.7 5.2 37.7 5.2"/><circle class="st15" cx="574.5" cy="323.1" r="23"/><path class="st5" d="M558.9 306.2c2.6 20 34.1 7.2 38 21.8-2.2 10.4-11.4 18.2-22.5 18.2-12.7 0-23-10.3-23-23 0-1.3.1-2.6.3-3.9 1.2 0 8.1 3.8 7.2-13.1z"/><path class="st11" d="M587 343.4V354m-24.6 0v-10.3m-353.7 2.8c3.1 6.8 9.9 11.2 17.3 11.2 7.5 0 14.3-4.4 17.4-11.3"/><path class="st27" d="M225.6 390.8s27.4.8 37.7-5.2c17-9.9-.3-30.2-13.7-33.6-4.1 7.7-13.3 13-24 13h.3c-10.7 0-19.8-5.4-24-13-13.4 3.4-30.7 23.8-13.7 33.6 10.3 6 37.7 5.2 37.7 5.2"/><circle class="st27" cx="226" cy="321.1" r="23"/><path class="st5" d="M236.7 308.9c2.6 20 7.9 2.4 11.8 17-2.2 10.4-11.4 18.2-22.5 18.2-12.7 0-23-10.3-23-23 0-1.3.1-2.6.3-3.9 1.1.1 26.3 11.1 33.4-8.3z"/><path class="st11" d="M238.6 341.4v10.5m-24.6.1v-10.3"/><path class="st4" d="M382.7 347.6c3.1 6.8 9.9 11.2 17.3 11.2 7.5 0 14.3-4.4 17.4-11.3"/><path class="st7" d="M400.1 391.8s27.4.8 37.7-5.2c17-9.9-.3-30.2-13.7-33.6-4.1 7.7-13.3 13-24 13h.3c-10.7 0-19.8-5.4-24-13-13.4 3.4-30.7 23.8-13.7 33.6 10.3 6 37.7 5.2 37.7 5.2"/><circle class="st7" cx="400" cy="322.1" r="23"/><path class="st4" d="M410.1 301.4c-6.7 17.2-19.4.5-32.6 25.5 2.2 10.4 11.4 18.2 22.5 18.2 12.7 0 23-10.3 23-23 0-1.3-11.1-5.9-12.9-20.7zm2.5 40V353m-24.6 0v-11.3"/><path class="st7" d="M377 322.6s0 10.6 4.6 14.5c-3.6 1.7-11.6-.9-10.5-1.7 4.5-3.1 5.9-12.8 5.9-12.8zm46-.5s-.2 11.1-4.8 15c3.6 1.7 11.6-.9 10.5-1.7-4.5-3.1-5.7-13.3-5.7-13.3z"/></g></svg>